<svg id="al93k4as9h1z" version="1.1" xmlns="http://www.w3.org/2000/svg" xmlns:xlink="http://www.w3.org/1999/xlink" width="60" height="60" viewBox="0 0 60 60" style=""><defs/><svg stroke-opacity="0.1" stroke="#fff" stroke-width="0" fill="#e03a3e" x="0" y="0"><path d="M2,0h56a2,2 0 0 1 2,2v56a2,2 0 0 1 -2,2h-56a2,2 0 0 1 -2,-2v-56a2,2 0 0 1 2,-2z"/></svg><svg width="42" height="42" y="9" x="9" fill="#fff"><svg xmlns="http://www.w3.org/2000/svg" xmlns:xlink="http://www.w3.org/1999/xlink" version="1.1" x="0px" y="0px" viewBox="0 0 100 100" enable-background="new 0 0 100 100" xml:space="preserve"><path d="M90.75,56.589l-10.629-32.47l5.211-5.637V9.004l-9.478-3.755l-7.927,6.348l-18.063,2.951l-17.716-2.921l-8.163-6.377  l-9.478,3.04v10.193l5.172,5.859L9.236,56.603L8.353,59.33l2.182,1.86l36.598,31.194l2.779,2.366l2.782-2.361l36.754-31.193  l2.199-1.866L90.75,56.589z M49.917,86.078L13.319,57.924l13.303-41.092l23.242-0.405l23.353,0.401L86.67,57.924L49.917,86.078z"/><polygon points="40.67,39.494 38.345,43.606 32.4,44.429 29.359,41.058 28.957,36.677 "/><polygon points="58.771,39.494 61.096,43.606 67.15,44.429 70.082,41.058 70.484,36.677 "/><g><polygon points="49.92,77.195 37.239,69.227 39.521,57.949 40.67,39.494 40.67,39.494 40.938,58.108 38.826,68.592 49.925,74.611    61.148,68.595 58.883,58.243 58.771,39.494 58.771,39.494 60.297,58.059 62.753,69.227  "/></g><polygon points="53.471,61.875 55.664,67.748 49.922,70.923 44.171,67.748 46.364,61.875 "/></svg></svg></svg>